<svg height="464pt" viewBox="0 0 464 464" width="464pt" xmlns="http://www.w3.org/2000/svg"><path d="m464 88v336c-.027344 8.824219-7.175781 15.972656-16 16h-272v-352c.027344-8.824219 7.175781-15.972656 16-16h256c8.824219.027344 15.972656 7.175781 16 16zm0 0" fill="#e6e7e8"/><path d="m240 128h160v48h-160zm0 0" fill="#ffd422"/><path d="m384 72v24h-128v-24c0-17.671875 14.328125-32 32-32h8v-24c.027344-8.824219 7.175781-15.9726562 16-16h16c8.824219.0273438 15.972656 7.175781 16 16v24h8c17.671875 0 32 14.328125 32 32zm0 0" fill="#ffa733"/><path d="m72 216v32h-8c-8.808594-.066406-15.933594-7.191406-16-16 .027344-8.824219 7.175781-15.972656 16-16zm0 0" fill="#f1cfa2"/><path d="m192 216c8.824219.027344 15.972656 7.175781 16 16-.066406 8.808594-7.191406 15.933594-16 16h-8v-32zm0 0" fill="#f1cfa2"/><path d="m160 336 16 24-16 40-32-24zm0 0" fill="#1e81ce"/><path d="m96 336 32 40-32 24-16-40zm0 0" fill="#1e81ce"/><path d="m160 336c53.019531 0 96 42.980469 96 96v32h-256v-32c0-53.019531 42.980469-96 96-96l-16 24 16 40 32-24 32 24 16-40zm0 0" fill="#3d9ae2"/><path d="m160 300.71875v35.28125l-32 40-32-40v-35.28125c5.058594 2.160156 10.5 3.277344 16 3.28125h32c5.5-.003906 10.941406-1.121094 16-3.28125zm0 0" fill="#f1cfa2"/><path d="m184 216v48c-.035156 15.910156-9.445312 30.300781-24 36.71875-5.058594 2.160156-10.5 3.277344-16 3.28125h-32c-5.5-.003906-10.941406-1.121094-16-3.28125-14.554688-6.417969-23.964844-20.808594-24-36.71875v-56s64-8 88-40c0 0 8 24 24 32zm0 0" fill="#ffdaaa"/><path d="m208 184v48c-.027344-8.824219-7.175781-15.972656-16-16h-8v-16c-16-8-24-32-24-32-24 32-88 40-88 40v8h-8c-8.824219.027344-15.972656 7.175781-16 16v-48c-.03125-30.316406 17.09375-58.035156 44.214844-71.582031 27.121094-13.542969 59.570312-10.574219 83.785156 7.660156 3.035156 2.238281 5.894531 4.699219 8.558594 7.363281 15.027344 14.984375 23.464844 35.335938 23.441406 56.558594zm0 0" fill="#787680"/><path d="m232 216h32v16h-32zm0 0" fill="#898890"/><path d="m280 216h128v16h-128zm0 0" fill="#acabb1"/><path d="m232 264h96v16h-96zm0 0" fill="#c6c5ca"/><path d="m344 264h64v16h-64zm0 0" fill="#acabb1"/><path d="m232 312h176v16h-176zm0 0" fill="#acabb1"/><path d="m280 360h128v16h-128zm0 0" fill="#898890"/><path d="m112 224c0 4.417969-3.582031 8-8 8s-8-3.582031-8-8 3.582031-8 8-8 8 3.582031 8 8zm0 0" fill="#603913"/><path d="m160 224c0 4.417969-3.582031 8-8 8s-8-3.582031-8-8 3.582031-8 8-8 8 3.582031 8 8zm0 0" fill="#603913"/><path d="m328 24c0 4.417969-3.582031 8-8 8s-8-3.582031-8-8 3.582031-8 8-8 8 3.582031 8 8zm0 0" fill="#cc7400"/></svg>